<svg width="66" height="66" viewBox="0 0 66 66" fill="none" xmlns="http://www.w3.org/2000/svg">
<path d="M24.9975 24.75C25.644 22.9121 26.9202 21.3623 28.5999 20.3751C30.2796 19.3879 32.2545 19.0271 34.1747 19.3565C36.095 19.6858 37.8367 20.6842 39.0915 22.1747C40.3462 23.6652 41.0329 25.5517 41.03 27.5C41.03 33 32.78 35.75 32.78 35.75M33 46.75H33.0275M60.5 33C60.5 48.1878 48.1878 60.5 33 60.5C17.8122 60.5 5.5 48.1878 5.5 33C5.5 17.8122 17.8122 5.5 33 5.5C48.1878 5.5 60.5 17.8122 60.5 33Z" stroke="#1E1E1E" stroke-width="4" stroke-linecap="round" stroke-linejoin="round"/>
</svg>
